PathFileType	4	(X/Y/Z)	/Users/itak/Documents/Research/Walk-IL/dataset/trc/00256_00009.trc
DataRate	CameraRate	NumFrames	NumMarkers	Units	OrigDataRate	OrigDataStartFrame	OrigNumFrames
100.000000	100.000000	4	53	mm	100.000000	291	583
Frame#	Time	RPSI			LPSI			L3			STRN			T10			C7			CLAV			RBAK			LBAK			LSHO			LUPA			LAEL			LAOL			LWTS			LWPS			LFRA			LIFD			LHPS			LHTS			RSHO			RUPA			RAEL			RAOL			RWTS			RWPS			RFRA			RIFD			RHTS			RHPS			RBHD			LFHD			RFHD			LBHD			LHIP			RHIP			RASI			LASI			LKNE			LTHI			LANK			LTIP			LTOE			LMT1			LMT5			LHEE			RKNE			RTHI			RANK			RTIP			RTOE			RMT1			RMT5			RHEE			
		X1	Y1	Z1	X2	Y2	Z2	X3	Y3	Z3	X4	Y4	Z4	X5	Y5	Z5	X6	Y6	Z6	X7	Y7	Z7	X8	Y8	Z8	X9	Y9	Z9	X10	Y10	Z10	X11	Y11	Z11	X12	Y12	Z12	X13	Y13	Z13	X14	Y14	Z14	X15	Y15	Z15	X16	Y16	Z16	X17	Y17	Z17	X18	Y18	Z18	X19	Y19	Z19	X20	Y20	Z20	X21	Y21	Z21	X22	Y22	Z22	X23	Y23	Z23	X24	Y24	Z24	X25	Y25	Z25	X26	Y26	Z26	X27	Y27	Z27	X28	Y28	Z28	X29	Y29	Z29	X30	Y30	Z30	X31	Y31	Z31	X32	Y32	Z32	X33	Y33	Z33	X34	Y34	Z34	X35	Y35	Z35	X36	Y36	Z36	X37	Y37	Z37	X38	Y38	Z38	X39	Y39	Z39	X40	Y40	Z40	X41	Y41	Z41	X42	Y42	Z42	X43	Y43	Z43	X44	Y44	Z44	X45	Y45	Z45	X46	Y46	Z46	X47	Y47	Z47	X48	Y48	Z48	X49	Y49	Z49	X50	Y50	Z50	X51	Y51	Z51	X52	Y52	Z52	X53	Y53	Z53	

292	2.91	-484.5534362792969	1028.351196289062	-151.166259765625	-389.427001953125	1032.1611328125	-227.5680389404297	-430.3352355957031	1125.002319335938	-198.1314544677734	-262.4838256835938	1311.45458984375	-3.556889772415161	-438.8499755859375	1251.380249023438	-194.9510345458984	-394.9777221679688	1511.393798828125	-143.6472778320312	-280.6255798339844	1431.14794921875	-19.06671714782715	-501.5965576171875	1373.041259765625	-146.3584442138672	-326.9223937988281	1478.916137695312	-233.563232421875	-223.6961517333984	1481.250732421875	-204.6124725341797	-192.5225372314453	1370.05810546875	-294.0509643554688	-183.1202850341797	1165.594970703125	-340.9378967285156	-270.3527526855469	1158.095703125	-349.25146484375	-174.6616516113281	908.864990234375	-302.4893798828125	-144.254150390625	912.5841064453125	-382.4150695800781	-167.3096313476562	1059.491821289062	-363.1498413085938	-207.8470001220703	731.8466186523438	-368.4043273925781	-149.3420257568359	823.444091796875	-396.9007873535156	-153.0616607666016	804.5508422851562	-331.1359558105469	-479.0553894042969	1478.728637695312	15.06240749359131	-542.4473266601562	1416.541748046875	49.83004379272461	-582.470947265625	1131.968383789062	66.64904022216797	-543.6851196289062	1126.109497070312	-20.23817443847656	-405.4057006835938	963.4022827148438	146.1086578369141	-480.7459716796875	926.0595092773438	157.9711456298828	-558.0700073242188	1067.1611328125	98.92511749267578	-333.3016357421875	784.409423828125	172.6668853759766	-354.0282897949219	857.697021484375	194.5672760009766	-422.6064758300781	835.4132690429688	195.0205230712891	-395.4544677734375	1666.988159179688	-85.58464813232422	-210.4782257080078	1682.908081054688	45.89075088500977	-296.3628845214844	1676.8056640625	95.89453887939453	-256.9898986816406	1673.747436523438	-111.9632949829102	-212.7995910644531	979.6028442382812	-227.7857360839844	-508.8584594726562	989.1507568359375	-8.781060218811035	-420.3284912109375	1037.63916015625	44.48316955566406	-194.2001953125	1022.879699707031	-119.9234771728516	-97.60335540771484	534.4036254882812	-44.90837478637695	-116.5078887939453	665.9286499023438	-109.723876953125	-106.8471908569336	53.13239669799805	-145.9800567626953	-97.53955078125	311.9271850585938	-103.7735824584961	-19.75418663024902	75.87069702148438	48.33509826660156	-93.37026977539062	58.67911529541016	25.07760810852051	-15.17702674865723	55.79142761230469	-58.83702850341797	-184.5969848632812	56.7127799987793	-162.3299865722656	-413.3622741699219	500.3782348632812	-40.73805236816406	-457.5046997070312	761.5596923828125	29.21643257141113	-437.1249694824219	35.50436401367188	-187.6313018798828	-388.9930419921875	380.8607482910156	-66.26902008056641	-253.9409484863281	42.40675354003906	-71.46538543701172	-265.4263610839844	37.85649871826172	-140.4255523681641	-376.8969116210938	38.7482795715332	-93.22943115234375	-440.59033203125	34.01194000244141	-272.554443359375	
293	2.92	-479.1222229003906	1027.6083984375	-146.9988098144531	-383.7196655273438	1031.454223632812	-222.9429626464844	-424.5171203613281	1124.400756835938	-193.8124847412109	-258.1283569335938	1310.617919921875	1.988691568374634	-432.9699096679688	1250.836547851562	-190.5818023681641	-389.4306640625	1510.764526367188	-138.8023376464844	-276.0353698730469	1430.352172851562	-13.48823261260986	-496.0821228027344	1372.455200195312	-142.4276428222656	-320.7860412597656	1478.341552734375	-228.2579345703125	-217.7256011962891	1480.621948242188	-198.5622100830078	-185.9649047851562	1369.547607421875	-287.8999633789062	-176.2467041015625	1165.163208007812	-334.9681396484375	-263.4489440917969	1157.64111328125	-343.9060974121094	-168.3515930175781	908.2468872070312	-297.0299377441406	-137.1680755615234	912.2525024414062	-376.6494140625	-160.3351440429688	1059.094116210938	-357.2235107421875	-201.6101989746094	731.3716430664062	-364.3023071289062	-142.5818481445312	823.1780395507812	-391.6487121582031	-147.0170135498047	803.9055786132812	-326.009521484375	-474.7199096679688	1478.0654296875	19.22039985656738	-538.353759765625	1415.897705078125	53.47904968261719	-578.4119873046875	1131.223022460938	69.63421630859375	-538.7833251953125	1125.406005859375	-16.8935432434082	-401.1803588867188	963.4707641601562	150.6694946289062	-476.5206604003906	925.8563232421875	162.0144500732422	-553.9840698242188	1066.5126953125	102.1638793945312	-328.6082458496094	784.8023071289062	178.0525665283203	-349.8300476074219	858.0361938476562	199.7046661376953	-418.3270568847656	835.4744873046875	199.6484069824219	-390.2015075683594	1666.32421875	-80.47261047363281	-206.0558471679688	1681.970458984375	52.12377166748047	-292.2046508789062	1675.874877929688	101.5999908447266	-251.6607818603516	1673.0390625	-105.982780456543	-206.889892578125	979.0484619140625	-222.0818634033203	-504.3900451660156	988.5873413085938	-4.742316722869873	-416.1536254882812	1036.937377929688	49.0323371887207	-189.1315612792969	1022.377380371094	-114.1584854125977	-92.77051544189453	534.7651977539062	-36.17966079711914	-111.2083282470703	665.8515625	-102.2219161987305	-93.78008270263672	50.24373626708984	-121.6015853881836	-88.94796752929688	310.59130859375	-88.10133361816406	-11.42978858947754	79.52086639404297	73.85751342773438	-84.33377838134766	61.12215423583984	49.52396774291992	-4.226701259613037	56.04209899902344	-32.48457717895508	-171.2314605712891	52.77832794189453	-139.8310394287109	-411.4078979492188	499.8368835449219	-38.47671508789062	-453.875244140625	760.90087890625	32.77522277832031	-437.1565551757812	35.61161422729492	-187.6017761230469	-387.6175842285156	380.2781677246094	-64.53211975097656	-253.9848937988281	42.33845901489258	-71.3468017578125	-265.407958984375	37.92025375366211	-140.3333129882812	-376.9777221679688	38.64098358154297	-93.15306091308594	-440.5695190429688	34.30373001098633	-272.4928894042969	
294	2.93	-473.5965270996094	1026.812866210938	-142.8009490966797	-378.0720520019531	1030.665649414062	-218.247802734375	-418.7171020507812	1123.702880859375	-189.375732421875	-253.714111328125	1309.70068359375	7.570554733276367	-427.1473693847656	1250.232421875	-186.16015625	-383.8883972167969	1510.05810546875	-133.8692626953125	-271.4060668945312	1429.474975585938	-7.863409996032715	-490.5560913085938	1371.794067382812	-138.3820037841797	-314.6567687988281	1477.686767578125	-222.8800964355469	-211.7870330810547	1479.912841796875	-192.4820404052734	-179.4435729980469	1368.958129882812	-281.7260131835938	-169.3313598632812	1164.652221679688	-328.9591979980469	-256.4784240722656	1157.06201171875	-338.5140686035156	-161.7504577636719	907.6280517578125	-291.199462890625	-129.9052429199219	911.7860717773438	-370.5616455078125	-153.2659759521484	1058.580200195312	-351.173095703125	-194.8830413818359	730.7493896484375	-359.3876953125	-135.4734802246094	822.7359619140625	-385.8645629882812	-140.5121154785156	803.27685546875	-320.3004760742188	-470.2869873046875	1477.298217773438	23.50992965698242	-534.179443359375	1415.157836914062	57.25455093383789	-574.4038696289062	1130.399658203125	72.64206695556641	-533.9557495117188	1124.641723632812	-13.52335834503174	-397.2449645996094	963.2467651367188	155.1764831542969	-472.5706481933594	925.4379272460938	166.0004577636719	-550.0217895507812	1065.75	105.3963394165039	-324.3618469238281	784.8161010742188	183.3453369140625	-345.9976196289062	858.0095825195312	204.7745971679688	-414.4155883789062	835.241455078125	204.2012786865234	-384.9131469726562	1665.577026367188	-75.30883026123047	-201.6104431152344	1680.974975585938	58.40569305419922	-288.0382080078125	1674.887817382812	107.3436508178711	-246.2979278564453	1672.248291015625	-99.96603393554688	-201.0289611816406	978.3575439453125	-216.3465881347656	-499.8553466796875	988.0023803710938	-0.5773444771766663	-411.9176330566406	1036.158935546875	53.66292190551758	-184.0465393066406	1021.762573242188	-108.3793411254883	-88.03726959228516	534.95068359375	-27.61980819702148	-105.9478607177734	665.5884399414062	-94.81599426269531	-81.7120361328125	47.82969665527344	-97.23619842529297	-80.84735107421875	309.3309631347656	-72.50835418701172	-3.454881191253662	83.48195648193359	98.78955841064453	-75.73807525634766	63.93334197998047	73.65574645996094	5.971426486968994	56.73882675170898	-6.590342998504639	-158.9050750732422	49.27754211425781	-117.0111694335938	-409.5911254882812	499.3089599609375	-36.24430084228516	-450.3052673339844	760.218994140625	36.4055061340332	-437.1953430175781	35.72711181640625	-187.5785675048828	-386.3737487792969	379.7183227539062	-62.82696151733398	-254.0423278808594	42.28141403198242	-71.22569274902344	-265.3876037597656	38.03158569335938	-140.2631378173828	-377.0809020996094	38.52534866333008	-93.06381225585938	-440.5529479980469	34.61971282958984	-272.4393920898438	
295	2.94	-467.9898071289062	1025.982788085938	-138.5658264160156	-372.4634704589844	1029.804321289062	-213.4862976074219	-412.9297485351562	1122.91162109375	-184.8180694580078	-249.2283782958984	1308.70703125	13.1953182220459	-421.37060546875	1249.565551757812	-181.6850128173828	-378.337158203125	1509.278564453125	-128.8479461669922	-266.7335205078125	1428.51953125	-2.19138503074646	-485.015869140625	1371.060791015625	-134.2223510742188	-308.5289916992188	1476.95263671875	-217.4292449951172	-205.8764190673828	1479.123779296875	-186.3740081787109	-172.9600524902344	1368.286743164062	-275.5281982421875	-162.3845825195312	1164.057983398438	-322.9033508300781	-249.4465637207031	1156.357421875	-333.0576477050781	-154.8802185058594	907.0018310546875	-285.0149536132812	-122.4855194091797	911.184814453125	-364.166015625	-146.1142120361328	1057.94873046875	-344.998291015625	-187.6613464355469	729.9525756835938	-353.6626281738281	-128.0333404541016	822.1151123046875	-379.5614929199219	-133.5457458496094	802.6630859375	-314.0233154296875	-465.7528381347656	1476.42822265625	27.93035125732422	-529.9239501953125	1414.320190429688	61.15747833251953	-570.4365234375	1129.500244140625	75.69669342041016	-529.193115234375	1123.81494140625	-10.10655212402344	-393.5855102539062	962.7264404296875	159.6339416503906	-468.8811340332031	924.8053588867188	169.9385223388672	-546.1718139648438	1064.875122070312	108.6456909179688	-320.5504150390625	784.4375610351562	188.528076171875	-342.5055847167969	857.6099853515625	209.760986328125	-410.8516235351562	834.7140502929688	208.6790618896484	-379.5899047851562	1664.750366210938	-70.09156036376953	-197.1345825195312	1679.926025390625	64.73329925537109	-283.8594055175781	1673.847900390625	113.1220092773438	-240.8975524902344	1671.38134765625	-93.91497802734375	-195.1944427490234	977.5369873046875	-210.5596466064453	-495.2424011230469	987.3980712890625	3.703445434570312	-407.6137084960938	1035.312622070312	58.37642669677734	-178.9355773925781	1021.036376953125	-102.5536270141602	-83.39183044433594	534.9595336914062	-19.21708679199219	-100.7133941650391	665.1395263671875	-87.50467681884766	-70.54487609863281	45.86894989013672	-73.00462341308594	-73.18656158447266	308.1406860351562	-57.0367317199707	4.22496223449707	87.72272491455078	123.105339050293	-67.53217315673828	67.08945465087891	97.40460968017578	15.5080680847168	57.84931945800781	18.7829532623291	-147.5243682861328	46.20306777954102	-94.01197052001953	-407.9018249511719	498.793701171875	-34.03872299194336	-446.7991943359375	759.5172729492188	40.09907913208008	-437.2377014160156	35.85332489013672	-187.5653228759766	-385.2487182617188	379.187744140625	-61.16337966918945	-254.1212768554688	42.24274444580078	-71.10820007324219	-265.3658447265625	38.18329238891602	-140.2106628417969	-377.2112121582031	38.40781402587891	-92.96569061279297	-440.5445251464844	34.96607971191406	-272.3959045410156	
